<svg xmlns="http://www.w3.org/2000/svg" version="1.1" xmlns:xlink="http://www.w3.org/1999/xlink" width="1000" height="1000"><style>
    #light-icon {
      display: inline;
    }
    #dark-icon {
      display: none;
    }

    @media (prefers-color-scheme: dark) {
      #light-icon {
        display: none;
      }
      #dark-icon {
        display: inline;
      }
    }
  </style><g id="light-icon"><svg xmlns="http://www.w3.org/2000/svg" version="1.1" xmlns:xlink="http://www.w3.org/1999/xlink" width="1000" height="1000"><g><g transform="matrix(50,0,0,50,0,0)"><svg xmlns="http://www.w3.org/2000/svg" version="1.1" xmlns:xlink="http://www.w3.org/1999/xlink" width="20" height="20"><svg xmlns="http://www.w3.org/2000/svg" width="20" height="20" viewBox="0 0 20 20">
	<path fill="currentColor" d="m14.878.282l.348 1.071a2.2 2.2 0 0 0 1.399 1.397l1.071.348l.021.006a.423.423 0 0 1 0 .798l-1.071.348a2.2 2.2 0 0 0-1.399 1.397l-.348 1.07a.423.423 0 0 1-.798 0l-.349-1.07a2.2 2.2 0 0 0-.532-.867a2.2 2.2 0 0 0-.866-.536l-1.071-.348a.423.423 0 0 1 0-.798l1.071-.348a2.2 2.2 0 0 0 1.377-1.397l.348-1.07a.423.423 0 0 1 .799 0m4.905 7.931l-.766-.248a1.58 1.58 0 0 1-.998-.999l-.25-.764a.302.302 0 0 0-.57 0l-.248.764a1.58 1.58 0 0 1-.984.999l-.765.248a.303.303 0 0 0 0 .57l.765.249a1.58 1.58 0 0 1 1 1.002l.248.764a.302.302 0 0 0 .57 0l.249-.764a1.58 1.58 0 0 1 .999-.999l.765-.248a.303.303 0 0 0 0-.57zM17.502 12a1.33 1.33 0 0 1-.746-.23c-.22-.16-.38-.371-.48-.621l-.26-.802a.5.5 0 0 0-.14-.22a.6.6 0 0 0-.22-.14l-.762-.25c-.27-.1-.49-.261-.65-.481s-.24-.481-.24-.752c0-.19.04-.38.12-.55q-.24-.06-.45-.21a1.5 1.5 0 0 1-.521-.692l-.36-1.092c-.09-.23-.18-.36-.29-.47a1.3 1.3 0 0 0-.471-.291l-1.061-.35a1.4 1.4 0 0 1-.471-.267v12.67a2.973 2.973 0 0 0 4.888-1.64l.037-.187a3.25 3.25 0 0 0 2.56-3.498a1.5 1.5 0 0 1-.483.073M9.5 2.462a2.423 2.423 0 0 0-3.8 1.486l-.125.627l-.406.081A2.7 2.7 0 0 0 3 7.302V7.5c0 .726.31 1.38.805 1.837a3.248 3.248 0 0 0 .77 6.088l.037.185A2.973 2.973 0 0 0 9.5 17.251z"></path>
</svg></svg></g></g></svg></g><g id="dark-icon"><svg xmlns="http://www.w3.org/2000/svg" version="1.1" xmlns:xlink="http://www.w3.org/1999/xlink" width="1000" height="1000"><g clip-path="url(#SvgjsClipPath1047)"><rect width="1000" height="1000" fill="#ffffff"></rect><g transform="matrix(35,0,0,35,150,150)"><svg xmlns="http://www.w3.org/2000/svg" version="1.1" xmlns:xlink="http://www.w3.org/1999/xlink" width="20" height="20"><svg xmlns="http://www.w3.org/2000/svg" width="20" height="20" viewBox="0 0 20 20">
	<path fill="currentColor" d="m14.878.282l.348 1.071a2.2 2.2 0 0 0 1.399 1.397l1.071.348l.021.006a.423.423 0 0 1 0 .798l-1.071.348a2.2 2.2 0 0 0-1.399 1.397l-.348 1.07a.423.423 0 0 1-.798 0l-.349-1.07a2.2 2.2 0 0 0-.532-.867a2.2 2.2 0 0 0-.866-.536l-1.071-.348a.423.423 0 0 1 0-.798l1.071-.348a2.2 2.2 0 0 0 1.377-1.397l.348-1.07a.423.423 0 0 1 .799 0m4.905 7.931l-.766-.248a1.58 1.58 0 0 1-.998-.999l-.25-.764a.302.302 0 0 0-.57 0l-.248.764a1.58 1.58 0 0 1-.984.999l-.765.248a.303.303 0 0 0 0 .57l.765.249a1.58 1.58 0 0 1 1 1.002l.248.764a.302.302 0 0 0 .57 0l.249-.764a1.58 1.58 0 0 1 .999-.999l.765-.248a.303.303 0 0 0 0-.57zM17.502 12a1.33 1.33 0 0 1-.746-.23c-.22-.16-.38-.371-.48-.621l-.26-.802a.5.5 0 0 0-.14-.22a.6.6 0 0 0-.22-.14l-.762-.25c-.27-.1-.49-.261-.65-.481s-.24-.481-.24-.752c0-.19.04-.38.12-.55q-.24-.06-.45-.21a1.5 1.5 0 0 1-.521-.692l-.36-1.092c-.09-.23-.18-.36-.29-.47a1.3 1.3 0 0 0-.471-.291l-1.061-.35a1.4 1.4 0 0 1-.471-.267v12.67a2.973 2.973 0 0 0 4.888-1.64l.037-.187a3.25 3.25 0 0 0 2.56-3.498a1.5 1.5 0 0 1-.483.073M9.5 2.462a2.423 2.423 0 0 0-3.8 1.486l-.125.627l-.406.081A2.7 2.7 0 0 0 3 7.302V7.5c0 .726.31 1.38.805 1.837a3.248 3.248 0 0 0 .77 6.088l.037.185A2.973 2.973 0 0 0 9.5 17.251z"></path>
</svg></svg></g></g><defs><clipPath id="SvgjsClipPath1047"><rect width="1000" height="1000" x="0" y="0" rx="350" ry="350"></rect></clipPath></defs></svg></g></svg>